<mxfile host="Electron" agent="Mozilla/5.0 (Windows NT 10.0; Win64; x64) AppleWebKit/537.36 (KHTML, like Gecko) draw.io/24.7.17 Chrome/128.0.6613.36 Electron/32.0.1 Safari/537.36" version="24.7.17">
  <diagram name="Page-1" id="bkGXrUdnT-bVuw_Vbvp5">
    <mxGraphModel dx="772" dy="367" grid="1" gridSize="10" guides="1" tooltips="1" connect="1" arrows="1" fold="1" page="1" pageScale="1" pageWidth="1400" pageHeight="850" math="0" shadow="0">
      <root>
        <mxCell id="0" />
        <mxCell id="1" parent="0" />
        <mxCell id="bsFY-IDUE_TwSqO9ztVE-1" value="USER" style="swimlane;fontStyle=0;childLayout=stackLayout;horizontal=1;startSize=30;horizontalStack=0;resizeParent=1;resizeParentMax=0;resizeLast=0;collapsible=1;marginBottom=0;whiteSpace=wrap;html=1;labelBackgroundColor=none;fillColor=#09555B;strokeColor=#BAC8D3;fontColor=#EEEEEE;" parent="1" vertex="1">
          <mxGeometry x="582" y="165" width="359" height="540" as="geometry" />
        </mxCell>
        <mxCell id="bsFY-IDUE_TwSqO9ztVE-2" value="Name: string, required" style="text;strokeColor=none;fillColor=none;align=left;verticalAlign=middle;spacingLeft=4;spacingRight=4;overflow=hidden;points=[[0,0.5],[1,0.5]];portConstraint=eastwest;rotatable=0;whiteSpace=wrap;html=1;labelBackgroundColor=none;fontColor=#EEEEEE;" parent="bsFY-IDUE_TwSqO9ztVE-1" vertex="1">
          <mxGeometry y="30" width="359" height="30" as="geometry" />
        </mxCell>
        <mxCell id="bsFY-IDUE_TwSqO9ztVE-3" value="Photo: string, default" style="text;strokeColor=none;fillColor=none;align=left;verticalAlign=middle;spacingLeft=4;spacingRight=4;overflow=hidden;points=[[0,0.5],[1,0.5]];portConstraint=eastwest;rotatable=0;whiteSpace=wrap;html=1;labelBackgroundColor=none;fontColor=#EEEEEE;" parent="bsFY-IDUE_TwSqO9ztVE-1" vertex="1">
          <mxGeometry y="60" width="359" height="30" as="geometry" />
        </mxCell>
        <mxCell id="bsFY-IDUE_TwSqO9ztVE-4" value="Phone: string, required, unique, validate" style="text;strokeColor=none;fillColor=none;align=left;verticalAlign=middle;spacingLeft=4;spacingRight=4;overflow=hidden;points=[[0,0.5],[1,0.5]];portConstraint=eastwest;rotatable=0;whiteSpace=wrap;html=1;labelBackgroundColor=none;fontColor=#EEEEEE;" parent="bsFY-IDUE_TwSqO9ztVE-1" vertex="1">
          <mxGeometry y="90" width="359" height="30" as="geometry" />
        </mxCell>
        <mxCell id="bsFY-IDUE_TwSqO9ztVE-5" value="Email: string, required, unique, maxlength=100, validate" style="text;strokeColor=none;fillColor=none;align=left;verticalAlign=middle;spacingLeft=4;spacingRight=4;overflow=hidden;points=[[0,0.5],[1,0.5]];portConstraint=eastwest;rotatable=0;whiteSpace=wrap;html=1;shadow=1;labelBackgroundColor=none;fontColor=#EEEEEE;" parent="bsFY-IDUE_TwSqO9ztVE-1" vertex="1">
          <mxGeometry y="120" width="359" height="30" as="geometry" />
        </mxCell>
        <mxCell id="bsFY-IDUE_TwSqO9ztVE-6" value="Password: string, required, minlength=8" style="text;strokeColor=none;fillColor=none;align=left;verticalAlign=middle;spacingLeft=4;spacingRight=4;overflow=hidden;points=[[0,0.5],[1,0.5]];portConstraint=eastwest;rotatable=0;whiteSpace=wrap;html=1;labelBackgroundColor=none;fontColor=#EEEEEE;" parent="bsFY-IDUE_TwSqO9ztVE-1" vertex="1">
          <mxGeometry y="150" width="359" height="30" as="geometry" />
        </mxCell>
        <mxCell id="bsFY-IDUE_TwSqO9ztVE-7" value="IDCard: string, unique, validate" style="text;strokeColor=none;fillColor=none;align=left;verticalAlign=middle;spacingLeft=4;spacingRight=4;overflow=hidden;points=[[0,0.5],[1,0.5]];portConstraint=eastwest;rotatable=0;whiteSpace=wrap;html=1;labelBackgroundColor=none;fontColor=#EEEEEE;" parent="bsFY-IDUE_TwSqO9ztVE-1" vertex="1">
          <mxGeometry y="180" width="359" height="30" as="geometry" />
        </mxCell>
        <mxCell id="bsFY-IDUE_TwSqO9ztVE-8" value="Birthday: date, required, max=now, min=1920" style="text;strokeColor=none;fillColor=none;align=left;verticalAlign=middle;spacingLeft=4;spacingRight=4;overflow=hidden;points=[[0,0.5],[1,0.5]];portConstraint=eastwest;rotatable=0;whiteSpace=wrap;html=1;labelBackgroundColor=none;fontColor=#EEEEEE;" parent="bsFY-IDUE_TwSqO9ztVE-1" vertex="1">
          <mxGeometry y="210" width="359" height="30" as="geometry" />
        </mxCell>
        <mxCell id="bsFY-IDUE_TwSqO9ztVE-9" value="Role: string, enum, default=patient" style="text;strokeColor=none;fillColor=none;align=left;verticalAlign=middle;spacingLeft=4;spacingRight=4;overflow=hidden;points=[[0,0.5],[1,0.5]];portConstraint=eastwest;rotatable=0;whiteSpace=wrap;html=1;labelBackgroundColor=none;fontColor=#EEEEEE;" parent="bsFY-IDUE_TwSqO9ztVE-1" vertex="1">
          <mxGeometry y="240" width="359" height="30" as="geometry" />
        </mxCell>
        <mxCell id="JKvzUL4bLa6gIHP7uEug-15" value="Active: boolean, default=true" style="text;strokeColor=none;fillColor=none;align=left;verticalAlign=middle;spacingLeft=4;spacingRight=4;overflow=hidden;points=[[0,0.5],[1,0.5]];portConstraint=eastwest;rotatable=0;whiteSpace=wrap;html=1;labelBackgroundColor=none;fontColor=#EEEEEE;" parent="bsFY-IDUE_TwSqO9ztVE-1" vertex="1">
          <mxGeometry y="270" width="359" height="30" as="geometry" />
        </mxCell>
        <mxCell id="bsFY-IDUE_TwSqO9ztVE-38" value="DoctorOptions:" style="text;strokeColor=none;fillColor=none;align=left;verticalAlign=middle;spacingLeft=4;spacingRight=4;overflow=hidden;points=[[0,0.5],[1,0.5]];portConstraint=eastwest;rotatable=0;whiteSpace=wrap;html=1;labelBackgroundColor=none;fontColor=#EEEEEE;" parent="bsFY-IDUE_TwSqO9ztVE-1" vertex="1">
          <mxGeometry y="300" width="359" height="30" as="geometry" />
        </mxCell>
        <mxCell id="bsFY-IDUE_TwSqO9ztVE-49" value="&lt;span style=&quot;white-space: pre;&quot;&gt;&#x9;&lt;/span&gt;Specification: string, required, enum" style="text;strokeColor=none;fillColor=none;align=left;verticalAlign=middle;spacingLeft=4;spacingRight=4;overflow=hidden;points=[[0,0.5],[1,0.5]];portConstraint=eastwest;rotatable=0;whiteSpace=wrap;html=1;labelBackgroundColor=none;fontColor=#EEEEEE;" parent="bsFY-IDUE_TwSqO9ztVE-1" vertex="1">
          <mxGeometry y="330" width="359" height="30" as="geometry" />
        </mxCell>
        <mxCell id="bsFY-IDUE_TwSqO9ztVE-50" value="&lt;span style=&quot;white-space: pre;&quot;&gt;&#x9;&lt;/span&gt;MCNumber: string, required, validate" style="text;strokeColor=none;fillColor=none;align=left;verticalAlign=middle;spacingLeft=4;spacingRight=4;overflow=hidden;points=[[0,0.5],[1,0.5]];portConstraint=eastwest;rotatable=0;whiteSpace=wrap;html=1;labelBackgroundColor=none;fontColor=#EEEEEE;" parent="bsFY-IDUE_TwSqO9ztVE-1" vertex="1">
          <mxGeometry y="360" width="359" height="30" as="geometry" />
        </mxCell>
        <mxCell id="bsFY-IDUE_TwSqO9ztVE-51" value="&lt;span style=&quot;white-space: pre;&quot;&gt;&#x9;&lt;/span&gt;RatingsAverage: number, default=1" style="text;strokeColor=none;fillColor=none;align=left;verticalAlign=middle;spacingLeft=4;spacingRight=4;overflow=hidden;points=[[0,0.5],[1,0.5]];portConstraint=eastwest;rotatable=0;whiteSpace=wrap;html=1;labelBackgroundColor=none;fontColor=#EEEEEE;" parent="bsFY-IDUE_TwSqO9ztVE-1" vertex="1">
          <mxGeometry y="390" width="359" height="30" as="geometry" />
        </mxCell>
        <mxCell id="bsFY-IDUE_TwSqO9ztVE-52" value="&lt;span style=&quot;white-space: pre;&quot;&gt;&#x9;&lt;/span&gt;RatingsQuantity: number, default=0" style="text;strokeColor=none;fillColor=none;align=left;verticalAlign=middle;spacingLeft=4;spacingRight=4;overflow=hidden;points=[[0,0.5],[1,0.5]];portConstraint=eastwest;rotatable=0;whiteSpace=wrap;html=1;labelBackgroundColor=none;fontColor=#EEEEEE;" parent="bsFY-IDUE_TwSqO9ztVE-1" vertex="1">
          <mxGeometry y="420" width="359" height="30" as="geometry" />
        </mxCell>
        <mxCell id="JKvzUL4bLa6gIHP7uEug-16" value="&lt;span style=&quot;white-space: pre;&quot;&gt;&lt;span style=&quot;white-space: pre;&quot;&gt;&#x9;&lt;/span&gt;VisitW&lt;/span&gt;eekdays: array of numbers, required, max=6, min=0" style="text;strokeColor=none;fillColor=none;align=left;verticalAlign=middle;spacingLeft=4;spacingRight=4;overflow=hidden;points=[[0,0.5],[1,0.5]];portConstraint=eastwest;rotatable=0;whiteSpace=wrap;html=1;labelBackgroundColor=none;fontColor=#EEEEEE;" parent="bsFY-IDUE_TwSqO9ztVE-1" vertex="1">
          <mxGeometry y="450" width="359" height="30" as="geometry" />
        </mxCell>
        <mxCell id="JKvzUL4bLa6gIHP7uEug-17" value="&lt;div&gt;&lt;span style=&quot;white-space: pre;&quot;&gt;&#x9;&lt;/span&gt;Visit&lt;span style=&quot;white-space: pre;&quot;&gt;R&lt;/span&gt;ange: array of strings, required&lt;/div&gt;" style="text;strokeColor=none;fillColor=none;align=left;verticalAlign=middle;spacingLeft=4;spacingRight=4;overflow=hidden;points=[[0,0.5],[1,0.5]];portConstraint=eastwest;rotatable=0;whiteSpace=wrap;html=1;labelBackgroundColor=none;fontColor=#EEEEEE;" parent="bsFY-IDUE_TwSqO9ztVE-1" vertex="1">
          <mxGeometry y="480" width="359" height="30" as="geometry" />
        </mxCell>
        <mxCell id="JKvzUL4bLa6gIHP7uEug-18" value="&lt;span style=&quot;background-color: initial; white-space: pre;&quot;&gt;&lt;span style=&quot;white-space: pre;&quot;&gt;&#x9;&lt;/span&gt;VisitE&lt;/span&gt;&lt;span style=&quot;background-color: initial;&quot;&gt;xceptions: array of dates&lt;/span&gt;" style="text;strokeColor=none;fillColor=none;align=left;verticalAlign=middle;spacingLeft=4;spacingRight=4;overflow=hidden;points=[[0,0.5],[1,0.5]];portConstraint=eastwest;rotatable=0;whiteSpace=wrap;html=1;labelBackgroundColor=none;fontColor=#EEEEEE;" parent="bsFY-IDUE_TwSqO9ztVE-1" vertex="1">
          <mxGeometry y="510" width="359" height="30" as="geometry" />
        </mxCell>
        <mxCell id="bsFY-IDUE_TwSqO9ztVE-10" value="VISIT" style="swimlane;fontStyle=0;childLayout=stackLayout;horizontal=1;startSize=30;horizontalStack=0;resizeParent=1;resizeParentMax=0;resizeLast=0;collapsible=1;marginBottom=0;whiteSpace=wrap;html=1;labelBackgroundColor=none;fillColor=#09555B;strokeColor=#BAC8D3;fontColor=#EEEEEE;" parent="1" vertex="1">
          <mxGeometry x="1181" y="165" width="360" height="300" as="geometry" />
        </mxCell>
        <mxCell id="bsFY-IDUE_TwSqO9ztVE-11" value="Patient: referenceID" style="text;strokeColor=none;fillColor=none;align=left;verticalAlign=middle;spacingLeft=4;spacingRight=4;overflow=hidden;points=[[0,0.5],[1,0.5]];portConstraint=eastwest;rotatable=0;whiteSpace=wrap;html=1;labelBackgroundColor=none;fontColor=#EEEEEE;" parent="bsFY-IDUE_TwSqO9ztVE-10" vertex="1">
          <mxGeometry y="30" width="360" height="30" as="geometry" />
        </mxCell>
        <mxCell id="bsFY-IDUE_TwSqO9ztVE-12" value="Doctor: referenceID" style="text;strokeColor=none;fillColor=none;align=left;verticalAlign=middle;spacingLeft=4;spacingRight=4;overflow=hidden;points=[[0,0.5],[1,0.5]];portConstraint=eastwest;rotatable=0;whiteSpace=wrap;html=1;labelBackgroundColor=none;fontColor=#EEEEEE;" parent="bsFY-IDUE_TwSqO9ztVE-10" vertex="1">
          <mxGeometry y="60" width="360" height="30" as="geometry" />
        </mxCell>
        <mxCell id="bsFY-IDUE_TwSqO9ztVE-14" value="Booked: boolean, default=true" style="text;strokeColor=none;fillColor=none;align=left;verticalAlign=middle;spacingLeft=4;spacingRight=4;overflow=hidden;points=[[0,0.5],[1,0.5]];portConstraint=eastwest;rotatable=0;whiteSpace=wrap;html=1;labelBackgroundColor=none;fontColor=#EEEEEE;" parent="bsFY-IDUE_TwSqO9ztVE-10" vertex="1">
          <mxGeometry y="90" width="360" height="30" as="geometry" />
        </mxCell>
        <mxCell id="bsFY-IDUE_TwSqO9ztVE-15" value="Closed: boolean, default=false" style="text;strokeColor=none;fillColor=none;align=left;verticalAlign=middle;spacingLeft=4;spacingRight=4;overflow=hidden;points=[[0,0.5],[1,0.5]];portConstraint=eastwest;rotatable=0;whiteSpace=wrap;html=1;labelBackgroundColor=none;fontColor=#EEEEEE;" parent="bsFY-IDUE_TwSqO9ztVE-10" vertex="1">
          <mxGeometry y="120" width="360" height="30" as="geometry" />
        </mxCell>
        <mxCell id="bsFY-IDUE_TwSqO9ztVE-16" value="DateTime: date, required, validate" style="text;strokeColor=none;fillColor=none;align=left;verticalAlign=middle;spacingLeft=4;spacingRight=4;overflow=hidden;points=[[0,0.5],[1,0.5]];portConstraint=eastwest;rotatable=0;whiteSpace=wrap;html=1;labelBackgroundColor=none;fontColor=#EEEEEE;" parent="bsFY-IDUE_TwSqO9ztVE-10" vertex="1">
          <mxGeometry y="150" width="360" height="30" as="geometry" />
        </mxCell>
        <mxCell id="bsFY-IDUE_TwSqO9ztVE-13" value="Prescription:" style="text;strokeColor=none;fillColor=none;align=left;verticalAlign=middle;spacingLeft=4;spacingRight=4;overflow=hidden;points=[[0,0.5],[1,0.5]];portConstraint=eastwest;rotatable=0;whiteSpace=wrap;html=1;labelBackgroundColor=none;fontColor=#EEEEEE;" parent="bsFY-IDUE_TwSqO9ztVE-10" vertex="1">
          <mxGeometry y="180" width="360" height="30" as="geometry" />
        </mxCell>
        <mxCell id="JKvzUL4bLa6gIHP7uEug-21" value="&lt;span style=&quot;white-space: pre;&quot;&gt;&#x9;&lt;/span&gt;Drug: string, required" style="text;strokeColor=none;fillColor=none;align=left;verticalAlign=middle;spacingLeft=4;spacingRight=4;overflow=hidden;points=[[0,0.5],[1,0.5]];portConstraint=eastwest;rotatable=0;whiteSpace=wrap;html=1;labelBackgroundColor=none;fontColor=#EEEEEE;" parent="bsFY-IDUE_TwSqO9ztVE-10" vertex="1">
          <mxGeometry y="210" width="360" height="30" as="geometry" />
        </mxCell>
        <mxCell id="JKvzUL4bLa6gIHP7uEug-22" value="&lt;span style=&quot;white-space: pre;&quot;&gt;&#x9;&lt;/span&gt;Count: number, required" style="text;strokeColor=none;fillColor=none;align=left;verticalAlign=middle;spacingLeft=4;spacingRight=4;overflow=hidden;points=[[0,0.5],[1,0.5]];portConstraint=eastwest;rotatable=0;whiteSpace=wrap;html=1;labelBackgroundColor=none;fontColor=#EEEEEE;" parent="bsFY-IDUE_TwSqO9ztVE-10" vertex="1">
          <mxGeometry y="240" width="360" height="30" as="geometry" />
        </mxCell>
        <mxCell id="JKvzUL4bLa6gIHP7uEug-23" value="&lt;span style=&quot;white-space: pre;&quot;&gt;&#x9;&lt;/span&gt;Usage: string, maxlength" style="text;strokeColor=none;fillColor=none;align=left;verticalAlign=middle;spacingLeft=4;spacingRight=4;overflow=hidden;points=[[0,0.5],[1,0.5]];portConstraint=eastwest;rotatable=0;whiteSpace=wrap;html=1;labelBackgroundColor=none;fontColor=#EEEEEE;" parent="bsFY-IDUE_TwSqO9ztVE-10" vertex="1">
          <mxGeometry y="270" width="360" height="30" as="geometry" />
        </mxCell>
        <mxCell id="bsFY-IDUE_TwSqO9ztVE-17" value="REVIEW" style="swimlane;fontStyle=0;childLayout=stackLayout;horizontal=1;startSize=30;horizontalStack=0;resizeParent=1;resizeParentMax=0;resizeLast=0;collapsible=1;marginBottom=0;whiteSpace=wrap;html=1;labelBackgroundColor=none;fillColor=#09555B;strokeColor=#BAC8D3;fontColor=#EEEEEE;" parent="1" vertex="1">
          <mxGeometry x="1621" y="165" width="360" height="150" as="geometry" />
        </mxCell>
        <mxCell id="bsFY-IDUE_TwSqO9ztVE-18" value="Rating: number, required, max=5, min=1" style="text;strokeColor=none;fillColor=none;align=left;verticalAlign=middle;spacingLeft=4;spacingRight=4;overflow=hidden;points=[[0,0.5],[1,0.5]];portConstraint=eastwest;rotatable=0;whiteSpace=wrap;html=1;labelBackgroundColor=none;fontColor=#EEEEEE;" parent="bsFY-IDUE_TwSqO9ztVE-17" vertex="1">
          <mxGeometry y="30" width="360" height="30" as="geometry" />
        </mxCell>
        <mxCell id="bsFY-IDUE_TwSqO9ztVE-19" value="Comment: string, required, maxlength, minlengh" style="text;strokeColor=none;fillColor=none;align=left;verticalAlign=middle;spacingLeft=4;spacingRight=4;overflow=hidden;points=[[0,0.5],[1,0.5]];portConstraint=eastwest;rotatable=0;whiteSpace=wrap;html=1;labelBackgroundColor=none;fontColor=#EEEEEE;" parent="bsFY-IDUE_TwSqO9ztVE-17" vertex="1">
          <mxGeometry y="60" width="360" height="30" as="geometry" />
        </mxCell>
        <mxCell id="bsFY-IDUE_TwSqO9ztVE-20" value="Patient: referenceID" style="text;strokeColor=none;fillColor=none;align=left;verticalAlign=middle;spacingLeft=4;spacingRight=4;overflow=hidden;points=[[0,0.5],[1,0.5]];portConstraint=eastwest;rotatable=0;whiteSpace=wrap;html=1;labelBackgroundColor=none;fontColor=#EEEEEE;" parent="bsFY-IDUE_TwSqO9ztVE-17" vertex="1">
          <mxGeometry y="90" width="360" height="30" as="geometry" />
        </mxCell>
        <mxCell id="bsFY-IDUE_TwSqO9ztVE-21" value="Doctor: referenceID" style="text;strokeColor=none;fillColor=none;align=left;verticalAlign=middle;spacingLeft=4;spacingRight=4;overflow=hidden;points=[[0,0.5],[1,0.5]];portConstraint=eastwest;rotatable=0;whiteSpace=wrap;html=1;labelBackgroundColor=none;fontColor=#EEEEEE;" parent="bsFY-IDUE_TwSqO9ztVE-17" vertex="1">
          <mxGeometry y="120" width="360" height="30" as="geometry" />
        </mxCell>
        <mxCell id="bsFY-IDUE_TwSqO9ztVE-22" value="DRUG" style="swimlane;fontStyle=0;childLayout=stackLayout;horizontal=1;startSize=30;horizontalStack=0;resizeParent=1;resizeParentMax=0;resizeLast=0;collapsible=1;marginBottom=0;whiteSpace=wrap;html=1;labelBackgroundColor=none;fillColor=#09555B;strokeColor=#BAC8D3;fontColor=#EEEEEE;" parent="1" vertex="1">
          <mxGeometry x="2061" y="165" width="360" height="120" as="geometry" />
        </mxCell>
        <mxCell id="bsFY-IDUE_TwSqO9ztVE-23" value="Name: string, required" style="text;strokeColor=none;fillColor=none;align=left;verticalAlign=middle;spacingLeft=4;spacingRight=4;overflow=hidden;points=[[0,0.5],[1,0.5]];portConstraint=eastwest;rotatable=0;whiteSpace=wrap;html=1;labelBackgroundColor=none;fontColor=#EEEEEE;" parent="bsFY-IDUE_TwSqO9ztVE-22" vertex="1">
          <mxGeometry y="30" width="360" height="30" as="geometry" />
        </mxCell>
        <mxCell id="bsFY-IDUE_TwSqO9ztVE-24" value="Image: string, default" style="text;strokeColor=none;fillColor=none;align=left;verticalAlign=middle;spacingLeft=4;spacingRight=4;overflow=hidden;points=[[0,0.5],[1,0.5]];portConstraint=eastwest;rotatable=0;whiteSpace=wrap;html=1;labelBackgroundColor=none;fontColor=#EEEEEE;" parent="bsFY-IDUE_TwSqO9ztVE-22" vertex="1">
          <mxGeometry y="60" width="360" height="30" as="geometry" />
        </mxCell>
        <mxCell id="bsFY-IDUE_TwSqO9ztVE-25" value="Category: string, required, enum" style="text;strokeColor=none;fillColor=none;align=left;verticalAlign=middle;spacingLeft=4;spacingRight=4;overflow=hidden;points=[[0,0.5],[1,0.5]];portConstraint=eastwest;rotatable=0;whiteSpace=wrap;html=1;labelBackgroundColor=none;fontColor=#EEEEEE;" parent="bsFY-IDUE_TwSqO9ztVE-22" vertex="1">
          <mxGeometry y="90" width="360" height="30" as="geometry" />
        </mxCell>
        <mxCell id="JKvzUL4bLa6gIHP7uEug-3" style="edgeStyle=orthogonalEdgeStyle;rounded=0;orthogonalLoop=1;jettySize=auto;html=1;" parent="1" source="JKvzUL4bLa6gIHP7uEug-1" target="bsFY-IDUE_TwSqO9ztVE-4" edge="1">
          <mxGeometry relative="1" as="geometry" />
        </mxCell>
        <mxCell id="JKvzUL4bLa6gIHP7uEug-4" style="edgeStyle=orthogonalEdgeStyle;rounded=0;orthogonalLoop=1;jettySize=auto;html=1;exitX=0;exitY=0.5;exitDx=0;exitDy=0;exitPerimeter=0;entryX=0;entryY=0.5;entryDx=0;entryDy=0;" parent="1" source="JKvzUL4bLa6gIHP7uEug-1" target="bsFY-IDUE_TwSqO9ztVE-5" edge="1">
          <mxGeometry relative="1" as="geometry" />
        </mxCell>
        <mxCell id="JKvzUL4bLa6gIHP7uEug-1" value="&lt;font style=&quot;font-size: 10px;&quot;&gt;Phone and Email requireness is implemented on their specific route handler.&lt;/font&gt;" style="shape=note;whiteSpace=wrap;html=1;backgroundOutline=1;fontColor=#000000;darkOpacity=0.05;fillColor=#FFF9B2;strokeColor=none;fillStyle=solid;direction=west;gradientDirection=north;gradientColor=#FFF2A1;shadow=1;size=14;pointerEvents=1;rotation=0;" parent="1" vertex="1">
          <mxGeometry x="380" y="249" width="160" height="71" as="geometry" />
        </mxCell>
        <mxCell id="JKvzUL4bLa6gIHP7uEug-20" style="edgeStyle=orthogonalEdgeStyle;rounded=0;orthogonalLoop=1;jettySize=auto;html=1;" parent="1" source="JKvzUL4bLa6gIHP7uEug-5" target="JKvzUL4bLa6gIHP7uEug-17" edge="1">
          <mxGeometry relative="1" as="geometry">
            <mxPoint x="530" y="690" as="targetPoint" />
          </mxGeometry>
        </mxCell>
        <mxCell id="JKvzUL4bLa6gIHP7uEug-5" value="&lt;font style=&quot;font-size: 10px;&quot;&gt;VisitRange represents the visits time range by an array of strings as hh:mm&lt;/font&gt;" style="shape=note;whiteSpace=wrap;html=1;backgroundOutline=1;fontColor=#000000;darkOpacity=0.05;fillColor=#FFF9B2;strokeColor=none;fillStyle=solid;direction=west;gradientDirection=north;gradientColor=#FFF2A1;shadow=1;size=14;pointerEvents=1;rotation=0;" parent="1" vertex="1">
          <mxGeometry x="380" y="650" width="160" height="60" as="geometry" />
        </mxCell>
        <mxCell id="JKvzUL4bLa6gIHP7uEug-10" style="edgeStyle=orthogonalEdgeStyle;rounded=0;orthogonalLoop=1;jettySize=auto;html=1;" parent="1" source="JKvzUL4bLa6gIHP7uEug-8" target="JKvzUL4bLa6gIHP7uEug-16" edge="1">
          <mxGeometry relative="1" as="geometry">
            <mxPoint x="582" y="650" as="targetPoint" />
          </mxGeometry>
        </mxCell>
        <mxCell id="JKvzUL4bLa6gIHP7uEug-8" value="&lt;font style=&quot;font-size: 10px;&quot;&gt;VisitWeekdays start from 0 for monday and increase up to 6 for sunday.&lt;/font&gt;" style="shape=note;whiteSpace=wrap;html=1;backgroundOutline=1;fontColor=#000000;darkOpacity=0.05;fillColor=#FFF9B2;strokeColor=none;fillStyle=solid;direction=west;gradientDirection=north;gradientColor=#FFF2A1;shadow=1;size=14;pointerEvents=1;rotation=0;" parent="1" vertex="1">
          <mxGeometry x="380" y="580" width="160" height="50" as="geometry" />
        </mxCell>
        <mxCell id="JKvzUL4bLa6gIHP7uEug-12" style="edgeStyle=orthogonalEdgeStyle;rounded=0;orthogonalLoop=1;jettySize=auto;html=1;exitX=0;exitY=0.5;exitDx=0;exitDy=0;exitPerimeter=0;entryX=0;entryY=0.5;entryDx=0;entryDy=0;" parent="1" source="JKvzUL4bLa6gIHP7uEug-11" target="bsFY-IDUE_TwSqO9ztVE-16" edge="1">
          <mxGeometry relative="1" as="geometry" />
        </mxCell>
        <mxCell id="JKvzUL4bLa6gIHP7uEug-11" value="&lt;font style=&quot;font-size: 10px;&quot;&gt;DateTime will be compared with doctor&#39;s working weekday and visiting range.&lt;/font&gt;" style="shape=note;whiteSpace=wrap;html=1;backgroundOutline=1;fontColor=#000000;darkOpacity=0.05;fillColor=#FFF9B2;strokeColor=none;fillStyle=solid;direction=west;gradientDirection=north;gradientColor=#FFF2A1;shadow=1;size=14;pointerEvents=1;rotation=0;" parent="1" vertex="1">
          <mxGeometry x="981" y="303" width="160" height="54" as="geometry" />
        </mxCell>
        <mxCell id="4OCKBoPFhYRE-P8O0lys-2" style="edgeStyle=orthogonalEdgeStyle;rounded=0;orthogonalLoop=1;jettySize=auto;html=1;exitX=0;exitY=0.5;exitDx=0;exitDy=0;exitPerimeter=0;entryX=0;entryY=0.5;entryDx=0;entryDy=0;" edge="1" parent="1" source="4OCKBoPFhYRE-P8O0lys-1" target="bsFY-IDUE_TwSqO9ztVE-6">
          <mxGeometry relative="1" as="geometry" />
        </mxCell>
        <mxCell id="4OCKBoPFhYRE-P8O0lys-1" value="&lt;font style=&quot;font-size: 10px;&quot;&gt;Password is only required when signing up using email.&lt;/font&gt;" style="shape=note;whiteSpace=wrap;html=1;backgroundOutline=1;fontColor=#000000;darkOpacity=0.05;fillColor=#FFF9B2;strokeColor=none;fillStyle=solid;direction=west;gradientDirection=north;gradientColor=#FFF2A1;shadow=1;size=14;pointerEvents=1;rotation=0;" vertex="1" parent="1">
          <mxGeometry x="380" y="330" width="160" height="60" as="geometry" />
        </mxCell>
      </root>
    </mxGraphModel>
  </diagram>
</mxfile>
